<mxfile host="app.diagrams.net" modified="2021-08-24T14:19:24.690Z" agent="5.0 (Windows NT 10.0; Win64; x64) AppleWebKit/537.36 (KHTML, like Gecko) Chrome/92.0.4515.159 Safari/537.36" etag="DXyF51dStGyLM17qprAG" version="14.9.8" type="github">
  <diagram id="ccpfopKYO3vTUIc4Om0J" name="Page-1">
    <mxGraphModel dx="2067" dy="1858" grid="1" gridSize="10" guides="1" tooltips="1" connect="1" arrows="1" fold="1" page="1" pageScale="1" pageWidth="827" pageHeight="1169" math="0" shadow="0">
      <root>
        <mxCell id="0" />
        <mxCell id="1" parent="0" />
        <mxCell id="TjZNHD8Qu1aB0wiJFo4--3" value="Cual es su problema?" style="rounded=1;whiteSpace=wrap;html=1;" vertex="1" parent="1">
          <mxGeometry x="320" width="130" height="40" as="geometry" />
        </mxCell>
        <mxCell id="TjZNHD8Qu1aB0wiJFo4--4" value="Pantallazo azul" style="rounded=1;whiteSpace=wrap;html=1;" vertex="1" parent="1">
          <mxGeometry x="240" y="80" width="120" height="40" as="geometry" />
        </mxCell>
        <mxCell id="TjZNHD8Qu1aB0wiJFo4--5" value="&lt;span style=&quot;color: rgb(60 , 60 , 60) ; font-family: &amp;#34;1und1websanscondens&amp;#34; , &amp;#34;arial&amp;#34; , &amp;#34;helvetica&amp;#34; , sans-serif ; font-size: 14px ; background-color: rgb(255 , 255 , 255)&quot;&gt;DATA_BUS_ERROR&lt;/span&gt;" style="rounded=1;whiteSpace=wrap;html=1;" vertex="1" parent="1">
          <mxGeometry x="-110" y="130" width="150" height="30" as="geometry" />
        </mxCell>
        <mxCell id="TjZNHD8Qu1aB0wiJFo4--6" value="" style="endArrow=classic;html=1;exitX=0.5;exitY=1;exitDx=0;exitDy=0;entryX=0.5;entryY=0;entryDx=0;entryDy=0;" edge="1" parent="1" source="TjZNHD8Qu1aB0wiJFo4--4" target="TjZNHD8Qu1aB0wiJFo4--5">
          <mxGeometry width="50" height="50" relative="1" as="geometry">
            <mxPoint x="380" y="260" as="sourcePoint" />
            <mxPoint x="430" y="210" as="targetPoint" />
          </mxGeometry>
        </mxCell>
        <mxCell id="TjZNHD8Qu1aB0wiJFo4--7" value="" style="endArrow=classic;html=1;entryX=0.5;entryY=0;entryDx=0;entryDy=0;exitX=0.5;exitY=1;exitDx=0;exitDy=0;" edge="1" parent="1" source="TjZNHD8Qu1aB0wiJFo4--3" target="TjZNHD8Qu1aB0wiJFo4--4">
          <mxGeometry width="50" height="50" relative="1" as="geometry">
            <mxPoint x="380" y="260" as="sourcePoint" />
            <mxPoint x="430" y="210" as="targetPoint" />
          </mxGeometry>
        </mxCell>
        <mxCell id="TjZNHD8Qu1aB0wiJFo4--8" value="&lt;span style=&quot;color: rgb(60 , 60 , 60) ; font-family: &amp;#34;1und1websanscondens&amp;#34; , &amp;#34;arial&amp;#34; , &amp;#34;helvetica&amp;#34; , sans-serif ; font-size: 14px ; background-color: rgb(245 , 245 , 245)&quot;&gt;INACCESSIBLE_BOOT_DEVICE&lt;/span&gt;" style="rounded=1;whiteSpace=wrap;html=1;" vertex="1" parent="1">
          <mxGeometry x="30" y="260" width="220" height="30" as="geometry" />
        </mxCell>
        <mxCell id="TjZNHD8Qu1aB0wiJFo4--9" value="" style="endArrow=classic;html=1;exitX=0.5;exitY=1;exitDx=0;exitDy=0;entryX=0.5;entryY=0;entryDx=0;entryDy=0;" edge="1" parent="1" source="TjZNHD8Qu1aB0wiJFo4--4" target="TjZNHD8Qu1aB0wiJFo4--8">
          <mxGeometry width="50" height="50" relative="1" as="geometry">
            <mxPoint x="380" y="250" as="sourcePoint" />
            <mxPoint x="430" y="200" as="targetPoint" />
          </mxGeometry>
        </mxCell>
        <mxCell id="TjZNHD8Qu1aB0wiJFo4--10" value="&lt;span style=&quot;color: rgb(60 , 60 , 60) ; font-family: &amp;#34;1und1websanscondens&amp;#34; , &amp;#34;arial&amp;#34; , &amp;#34;helvetica&amp;#34; , sans-serif ; font-size: 14px ; background-color: rgb(245 , 245 , 245)&quot;&gt;UNEXPECTED_KERNEL_MODE_TRAP&lt;/span&gt;" style="rounded=1;whiteSpace=wrap;html=1;" vertex="1" parent="1">
          <mxGeometry x="154" y="380" width="260" height="30" as="geometry" />
        </mxCell>
        <mxCell id="TjZNHD8Qu1aB0wiJFo4--11" value="" style="endArrow=classic;html=1;entryX=0.562;entryY=-0.033;entryDx=0;entryDy=0;entryPerimeter=0;" edge="1" parent="1" target="TjZNHD8Qu1aB0wiJFo4--10">
          <mxGeometry width="50" height="50" relative="1" as="geometry">
            <mxPoint x="300" y="120" as="sourcePoint" />
            <mxPoint x="430" y="200" as="targetPoint" />
          </mxGeometry>
        </mxCell>
        <mxCell id="TjZNHD8Qu1aB0wiJFo4--12" value="&lt;span style=&quot;color: rgb(60 , 60 , 60) ; font-family: &amp;#34;1und1websanscondens&amp;#34; , &amp;#34;arial&amp;#34; , &amp;#34;helvetica&amp;#34; , sans-serif ; font-size: 14px ; background-color: rgb(245 , 245 , 245)&quot;&gt;NTFS_FILE_SYSTEM&lt;/span&gt;" style="rounded=1;whiteSpace=wrap;html=1;" vertex="1" parent="1">
          <mxGeometry x="-70" y="170" width="150" height="30" as="geometry" />
        </mxCell>
        <mxCell id="TjZNHD8Qu1aB0wiJFo4--13" value="" style="endArrow=classic;html=1;exitX=0.5;exitY=1;exitDx=0;exitDy=0;entryX=0.5;entryY=0;entryDx=0;entryDy=0;" edge="1" parent="1" source="TjZNHD8Qu1aB0wiJFo4--4" target="TjZNHD8Qu1aB0wiJFo4--12">
          <mxGeometry width="50" height="50" relative="1" as="geometry">
            <mxPoint x="380" y="250" as="sourcePoint" />
            <mxPoint x="490" y="260" as="targetPoint" />
          </mxGeometry>
        </mxCell>
        <mxCell id="TjZNHD8Qu1aB0wiJFo4--14" value="&lt;span style=&quot;color: rgb(60 , 60 , 60) ; font-family: &amp;#34;1und1websanscondens&amp;#34; , &amp;#34;arial&amp;#34; , &amp;#34;helvetica&amp;#34; , sans-serif ; font-size: 14px ; background-color: rgb(255 , 255 , 255)&quot;&gt;IRQL_NOT_LESS_OR_EQUAL&lt;/span&gt;" style="rounded=1;whiteSpace=wrap;html=1;" vertex="1" parent="1">
          <mxGeometry x="-30" y="210" width="210" height="30" as="geometry" />
        </mxCell>
        <mxCell id="TjZNHD8Qu1aB0wiJFo4--15" value="" style="endArrow=classic;html=1;entryX=0.5;entryY=0;entryDx=0;entryDy=0;exitX=0.5;exitY=1;exitDx=0;exitDy=0;" edge="1" parent="1" source="TjZNHD8Qu1aB0wiJFo4--4" target="TjZNHD8Qu1aB0wiJFo4--14">
          <mxGeometry width="50" height="50" relative="1" as="geometry">
            <mxPoint x="320" y="140" as="sourcePoint" />
            <mxPoint x="430" y="200" as="targetPoint" />
          </mxGeometry>
        </mxCell>
        <mxCell id="TjZNHD8Qu1aB0wiJFo4--16" value="&#xa;&#xa;&lt;span style=&quot;color: rgb(60, 60, 60); font-family: &amp;quot;1und1websanscondens&amp;quot;, arial, helvetica, sans-serif; font-size: 14px; font-style: normal; font-weight: 400; letter-spacing: normal; text-indent: 0px; text-transform: none; word-spacing: 0px; background-color: rgb(245, 245, 245); display: inline; float: none;&quot;&gt;BAD_POOL_CALLER&lt;/span&gt;&#xa;&#xa;" style="rounded=1;whiteSpace=wrap;html=1;" vertex="1" parent="1">
          <mxGeometry x="450" y="290" width="160" height="30" as="geometry" />
        </mxCell>
        <mxCell id="TjZNHD8Qu1aB0wiJFo4--17" value="" style="endArrow=classic;html=1;exitX=0.5;exitY=1;exitDx=0;exitDy=0;entryX=0.5;entryY=0;entryDx=0;entryDy=0;" edge="1" parent="1" source="TjZNHD8Qu1aB0wiJFo4--4" target="TjZNHD8Qu1aB0wiJFo4--16">
          <mxGeometry width="50" height="50" relative="1" as="geometry">
            <mxPoint x="380" y="250" as="sourcePoint" />
            <mxPoint x="430" y="200" as="targetPoint" />
          </mxGeometry>
        </mxCell>
        <mxCell id="TjZNHD8Qu1aB0wiJFo4--18" value="&#xa;&#xa;&lt;span style=&quot;color: rgb(60, 60, 60); font-family: &amp;quot;1und1websanscondens&amp;quot;, arial, helvetica, sans-serif; font-size: 14px; font-style: normal; font-weight: 400; letter-spacing: normal; text-indent: 0px; text-transform: none; word-spacing: 0px; background-color: rgb(255, 255, 255); display: inline; float: none;&quot;&gt;FAT_FILE_SYSTEM&lt;/span&gt;&#xa;&#xa;" style="rounded=1;whiteSpace=wrap;html=1;" vertex="1" parent="1">
          <mxGeometry x="510" y="240" width="140" height="30" as="geometry" />
        </mxCell>
        <mxCell id="TjZNHD8Qu1aB0wiJFo4--19" value="" style="endArrow=classic;html=1;entryX=0.5;entryY=0;entryDx=0;entryDy=0;exitX=0.5;exitY=1;exitDx=0;exitDy=0;" edge="1" parent="1" source="TjZNHD8Qu1aB0wiJFo4--4" target="TjZNHD8Qu1aB0wiJFo4--18">
          <mxGeometry width="50" height="50" relative="1" as="geometry">
            <mxPoint x="430" y="70" as="sourcePoint" />
            <mxPoint x="430" y="200" as="targetPoint" />
          </mxGeometry>
        </mxCell>
        <mxCell id="TjZNHD8Qu1aB0wiJFo4--20" value="&#xa;&#xa;&lt;span style=&quot;color: rgb(60, 60, 60); font-family: &amp;quot;1und1websanscondens&amp;quot;, arial, helvetica, sans-serif; font-size: 14px; font-style: normal; font-weight: 400; letter-spacing: normal; text-indent: 0px; text-transform: none; word-spacing: 0px; background-color: rgb(245, 245, 245); display: inline; float: none;&quot;&gt;OUT_OF_MEMORY&lt;/span&gt;&#xa;&#xa;" style="rounded=1;whiteSpace=wrap;html=1;" vertex="1" parent="1">
          <mxGeometry x="560" y="190" width="140" height="30" as="geometry" />
        </mxCell>
        <mxCell id="TjZNHD8Qu1aB0wiJFo4--21" value="" style="endArrow=classic;html=1;exitX=0.5;exitY=1;exitDx=0;exitDy=0;entryX=0.5;entryY=0;entryDx=0;entryDy=0;" edge="1" parent="1" source="TjZNHD8Qu1aB0wiJFo4--4" target="TjZNHD8Qu1aB0wiJFo4--20">
          <mxGeometry width="50" height="50" relative="1" as="geometry">
            <mxPoint x="380" y="250" as="sourcePoint" />
            <mxPoint x="430" y="200" as="targetPoint" />
          </mxGeometry>
        </mxCell>
        <mxCell id="TjZNHD8Qu1aB0wiJFo4--23" value="&#xa;&#xa;&lt;span style=&quot;color: rgb(60, 60, 60); font-family: &amp;quot;1und1websanscondens&amp;quot;, arial, helvetica, sans-serif; font-size: 14px; font-style: normal; font-weight: 400; letter-spacing: normal; text-indent: 0px; text-transform: none; word-spacing: 0px; background-color: rgb(255, 255, 255); display: inline; float: none;&quot;&gt;PAGE_FAULT_IN_NON_PAGED_AREA&lt;/span&gt;&#xa;&#xa;" style="rounded=1;whiteSpace=wrap;html=1;" vertex="1" parent="1">
          <mxGeometry x="567" y="140" width="260" height="30" as="geometry" />
        </mxCell>
        <mxCell id="TjZNHD8Qu1aB0wiJFo4--24" value="" style="endArrow=classic;html=1;entryX=0.5;entryY=0;entryDx=0;entryDy=0;" edge="1" parent="1" target="TjZNHD8Qu1aB0wiJFo4--23">
          <mxGeometry width="50" height="50" relative="1" as="geometry">
            <mxPoint x="299" y="120" as="sourcePoint" />
            <mxPoint x="680" y="200" as="targetPoint" />
          </mxGeometry>
        </mxCell>
        <mxCell id="TjZNHD8Qu1aB0wiJFo4--25" value="&#xa;&#xa;&lt;span style=&quot;color: rgb(60, 60, 60); font-family: &amp;quot;1und1websanscondens&amp;quot;, arial, helvetica, sans-serif; font-size: 14px; font-style: normal; font-weight: 400; letter-spacing: normal; text-indent: 0px; text-transform: none; word-spacing: 0px; background-color: rgb(245, 245, 245); display: inline; float: none;&quot;&gt;UNABLE_TO_LOAD_DEVICE_DRIVER&lt;/span&gt;&#xa;&#xa;" style="rounded=1;whiteSpace=wrap;html=1;" vertex="1" parent="1">
          <mxGeometry x="110" y="310" width="260" height="30" as="geometry" />
        </mxCell>
        <mxCell id="TjZNHD8Qu1aB0wiJFo4--26" value="" style="endArrow=classic;html=1;entryX=0.5;entryY=0;entryDx=0;entryDy=0;" edge="1" parent="1" target="TjZNHD8Qu1aB0wiJFo4--25">
          <mxGeometry width="50" height="50" relative="1" as="geometry">
            <mxPoint x="300" y="120" as="sourcePoint" />
            <mxPoint x="280" y="200" as="targetPoint" />
          </mxGeometry>
        </mxCell>
        <mxCell id="TjZNHD8Qu1aB0wiJFo4--27" value="&#xa;&#xa;&lt;span style=&quot;color: rgb(60, 60, 60); font-family: &amp;quot;1und1websanscondens&amp;quot;, arial, helvetica, sans-serif; font-size: 14px; font-style: normal; font-weight: 400; letter-spacing: normal; text-indent: 0px; text-transform: none; word-spacing: 0px; background-color: rgb(255, 255, 255); display: inline; float: none;&quot;&gt;KMODE_EXCEPTION_NOT_HANDLED&lt;/span&gt;&#xa;&#xa;" style="rounded=1;whiteSpace=wrap;html=1;" vertex="1" parent="1">
          <mxGeometry x="310" y="340" width="270" height="30" as="geometry" />
        </mxCell>
        <mxCell id="TjZNHD8Qu1aB0wiJFo4--28" value="" style="endArrow=classic;html=1;entryX=0.5;entryY=0;entryDx=0;entryDy=0;" edge="1" parent="1" target="TjZNHD8Qu1aB0wiJFo4--27">
          <mxGeometry width="50" height="50" relative="1" as="geometry">
            <mxPoint x="300" y="120" as="sourcePoint" />
            <mxPoint x="280" y="200" as="targetPoint" />
          </mxGeometry>
        </mxCell>
        <mxCell id="TjZNHD8Qu1aB0wiJFo4--32" value="Se apaga sola" style="rounded=1;whiteSpace=wrap;html=1;" vertex="1" parent="1">
          <mxGeometry x="240" y="-80" width="120" height="40" as="geometry" />
        </mxCell>
        <mxCell id="TjZNHD8Qu1aB0wiJFo4--33" value="" style="endArrow=classic;html=1;entryX=0.592;entryY=1.075;entryDx=0;entryDy=0;entryPerimeter=0;exitX=0.5;exitY=0;exitDx=0;exitDy=0;" edge="1" parent="1" source="TjZNHD8Qu1aB0wiJFo4--3" target="TjZNHD8Qu1aB0wiJFo4--32">
          <mxGeometry width="50" height="50" relative="1" as="geometry">
            <mxPoint x="390" y="50" as="sourcePoint" />
            <mxPoint x="440" as="targetPoint" />
          </mxGeometry>
        </mxCell>
      </root>
    </mxGraphModel>
  </diagram>
</mxfile>
